<svg width="13" height="15" viewBox="0 0 13 15" fill="none" xmlns="http://www.w3.org/2000/svg">
<path fill-rule="evenodd" clip-rule="evenodd" d="M6.30254 0.298591H10.8019C11.4636 0.298591 12.0017 0.836685 12.0017 1.49843V13.4967C12.0017 14.1584 11.4636 14.6965 10.8019 14.6965H1.20329C0.541549 14.6965 0.00345551 14.1584 0.00345551 13.4967V6.59771C0.00345551 6.51801 0.0350915 6.44186 0.0913334 6.38562L2.27892 4.19804L1.80319 3.72231L1.71532 3.81019C1.65671 3.86877 1.57997 3.89807 1.50323 3.89807C1.42649 3.89807 1.34974 3.86877 1.29117 3.81019L0.0913334 2.61036C-0.0258465 2.4932 -0.0258465 2.30339 0.0913334 2.18621L1.89107 0.386469C2.00822 0.269289 2.19804 0.269289 2.31522 0.386469L3.51506 1.5863C3.63224 1.70346 3.63224 1.89327 3.51506 2.01045L3.42718 2.09833L3.90287 2.57405L6.09045 0.386469C6.1467 0.330227 6.22288 0.298591 6.30254 0.298591ZM5.10271 3.89807H9.60205C10.2638 3.89807 10.8019 3.36 10.8019 2.69826C10.8019 2.03652 10.2638 1.49843 9.60208 1.49843H6.90247C6.82278 1.49843 6.74663 1.53006 6.69039 1.5863L4.89065 3.38604C4.80479 3.47187 4.77903 3.60075 4.8256 3.71295C4.87189 3.82512 4.98142 3.89807 5.10271 3.89807ZM7.96309 10.2108C7.96309 8.73938 5.99974 6.84515 5.99974 6.84515C5.99974 6.84515 4.03639 8.73938 4.03639 10.2108C4.03639 11.2419 4.91715 12.0808 5.99974 12.0808C7.08233 12.0808 7.96309 11.2419 7.96309 10.2108Z" fill="white" fill-opacity="0.7"/>
</svg>
