<svg width="70" height="71" viewBox="0 0 70 71" fill="none" xmlns="http://www.w3.org/2000/svg">
<g filter="url(#filter0_iiii_1305_312)">
<path d="M33 41.5C33 37.1239 33.0151 32.9271 33.042 29.8327C33.0689 26.7384 33.1053 25 33.1433 25L35.8567 25C35.8947 25 35.9311 26.7384 35.958 29.8327C35.9849 32.9271 36 37.1239 36 41.5C36 45.8761 35.9849 50.0729 35.958 53.1673C35.9311 56.2616 35.8947 58 35.8567 58H33.1433C33.1053 58 33.0689 56.2616 33.042 53.1673C33.0151 50.0729 33 45.8761 33 41.5Z" fill="#6ADEEF"/>
<path d="M33 41.5C33 37.1239 33.0151 32.9271 33.042 29.8327C33.0689 26.7384 33.1053 25 33.1433 25L35.8567 25C35.8947 25 35.9311 26.7384 35.958 29.8327C35.9849 32.9271 36 37.1239 36 41.5C36 45.8761 35.9849 50.0729 35.958 53.1673C35.9311 56.2616 35.8947 58 35.8567 58H33.1433C33.1053 58 33.0689 56.2616 33.042 53.1673C33.0151 50.0729 33 45.8761 33 41.5Z" fill="white" fill-opacity="0.6"/>
</g>
<g filter="url(#filter1_iiii_1305_312)">
<path d="M34.65 56.5239C34.3207 56.5239 34.0014 56.413 33.7449 56.2095L0.544581 29.8864C0.395741 29.7696 0.271783 29.625 0.179833 29.4609C0.0878838 29.2967 0.0297562 29.1163 0.0087924 28.9299C-0.0121714 28.7435 0.0044421 28.5549 0.0576776 28.3749C0.110913 28.1949 0.19972 28.027 0.318995 27.8809C0.438269 27.7349 0.585657 27.6135 0.752687 27.5237C0.919716 27.434 1.10309 27.3777 1.29227 27.358C1.48145 27.3384 1.67271 27.3558 1.85504 27.4093C2.03737 27.4627 2.20719 27.5512 2.35472 27.6696L34.65 53.2755L66.9452 27.6724C67.2437 27.4382 67.624 27.3301 68.0032 27.3715C68.3823 27.4129 68.7294 27.6006 68.9686 27.8936C69.2078 28.1865 69.3196 28.5608 69.2796 28.9348C69.2397 29.3087 69.0512 29.6519 68.7553 29.8892L35.555 56.2123C35.2982 56.4148 34.9788 56.5247 34.65 56.5239Z" fill="#6ADEEF"/>
<path d="M34.65 56.5239C34.3207 56.5239 34.0014 56.413 33.7449 56.2095L0.544581 29.8864C0.395741 29.7696 0.271783 29.625 0.179833 29.4609C0.0878838 29.2967 0.0297562 29.1163 0.0087924 28.9299C-0.0121714 28.7435 0.0044421 28.5549 0.0576776 28.3749C0.110913 28.1949 0.19972 28.027 0.318995 27.8809C0.438269 27.7349 0.585657 27.6135 0.752687 27.5237C0.919716 27.434 1.10309 27.3777 1.29227 27.358C1.48145 27.3384 1.67271 27.3558 1.85504 27.4093C2.03737 27.4627 2.20719 27.5512 2.35472 27.6696L34.65 53.2755L66.9452 27.6724C67.2437 27.4382 67.624 27.3301 68.0032 27.3715C68.3823 27.4129 68.7294 27.6006 68.9686 27.8936C69.2078 28.1865 69.3196 28.5608 69.2796 28.9348C69.2397 29.3087 69.0512 29.6519 68.7553 29.8892L35.555 56.2123C35.2982 56.4148 34.9788 56.5247 34.65 56.5239Z" fill="white" fill-opacity="0.6"/>
</g>
<g filter="url(#filter2_iiii_1305_312)">
<path d="M34.6425 56.5251C34.3945 56.525 34.1507 56.4614 33.9341 56.3402C33.7174 56.219 33.535 56.0442 33.4041 55.8324L16.6301 28.683C16.4258 28.3522 16.3605 27.9533 16.4486 27.574C16.5367 27.1948 16.7709 26.8663 17.0997 26.6608C17.4286 26.4553 17.8251 26.3896 18.202 26.4782C18.5789 26.5668 18.9054 26.8025 19.1097 27.1333L34.6425 52.278L50.1781 27.1363C50.3824 26.8054 50.7089 26.5698 51.0858 26.4812C51.4628 26.3925 51.8593 26.4582 52.1881 26.6637C52.5169 26.8692 52.7511 27.1977 52.8392 27.577C52.9273 27.9562 52.862 28.3551 52.6578 28.686L35.8837 55.8354C35.7522 56.0471 35.5692 56.2215 35.352 56.3422C35.1348 56.4629 34.8906 56.5258 34.6425 56.5251Z" fill="#6ADEEF"/>
<path d="M34.6425 56.5251C34.3945 56.525 34.1507 56.4614 33.9341 56.3402C33.7174 56.219 33.535 56.0442 33.4041 55.8324L16.6301 28.683C16.4258 28.3522 16.3605 27.9533 16.4486 27.574C16.5367 27.1948 16.7709 26.8663 17.0997 26.6608C17.4286 26.4553 17.8251 26.3896 18.202 26.4782C18.5789 26.5668 18.9054 26.8025 19.1097 27.1333L34.6425 52.278L50.1781 27.1363C50.3824 26.8054 50.7089 26.5698 51.0858 26.4812C51.4628 26.3925 51.8593 26.4582 52.1881 26.6637C52.5169 26.8692 52.7511 27.1977 52.8392 27.577C52.9273 27.9562 52.862 28.3551 52.6578 28.686L35.8837 55.8354C35.7522 56.0471 35.5692 56.2215 35.352 56.3422C35.1348 56.4629 34.8906 56.5258 34.6425 56.5251Z" fill="white" fill-opacity="0.6"/>
</g>
<g clip-path="url(#clip0_1305_312)">
<path d="M69.2545 28.3071C67.4923 20.3008 63.1084 13.14 56.8206 7.9974C50.5328 2.85477 42.7137 0.03506 34.6438 0C43.8114 0 51.054 13.4689 51.054 30.0843C51.2462 30.0844 51.6265 30.0456 51.8037 29.97C51.981 29.8944 52.1416 29.7836 52.2761 29.644C53.2223 28.6588 54.3527 27.8759 55.6009 27.3414C56.849 26.8069 58.1897 26.5315 59.5441 26.5315C60.8985 26.5315 62.2392 26.8069 63.4874 27.3414C64.7355 27.8759 65.866 28.6588 66.8121 29.644C67.0312 29.8717 67.3172 30.0208 67.6269 30.0687C67.9366 30.1166 68.2532 30.0608 68.529 29.9097C68.8048 29.7586 69.0247 29.5204 69.1556 29.231C69.2865 28.9416 69.3212 28.6183 69.2545 28.3071Z" fill="url(#paint0_linear_1305_312)"/>
<path d="M34.6438 0C26.5739 0.0350583 18.7548 2.85463 12.467 7.99701C6.17919 13.1394 1.79524 20.2998 0.0330541 28.3057C-0.0336025 28.6169 0.00113407 28.9417 0.132018 29.231C0.262903 29.5204 0.48283 29.7586 0.7586 29.9097C1.03437 30.0608 1.35101 30.1166 1.66072 30.0687C1.97043 30.0208 2.2564 29.8717 2.47545 29.644C3.42163 28.6589 4.55205 27.876 5.80022 27.3416C7.04838 26.8071 8.38908 26.5317 9.74346 26.5317C11.0978 26.5317 12.4385 26.8071 13.6867 27.3416C14.9349 27.876 16.0653 28.6589 17.0115 29.644C17.146 29.7836 17.3066 29.8944 17.4838 29.97C17.6611 30.0456 18.0414 30.0844 18.2336 30.0843C18.2336 13.4683 25.4761 0 34.6438 0Z" fill="url(#paint1_linear_1305_312)"/>
<path d="M34.6438 0V30.0854C34.8338 30.0856 35.0219 30.0467 35.1971 29.9711C35.3723 29.8955 35.5311 29.7847 35.6641 29.6451C36.5994 28.6599 37.7169 27.877 38.9508 27.3424C40.1847 26.8079 41.51 26.5325 42.8489 26.5325C44.1878 26.5325 45.5131 26.8079 46.747 27.3424C47.9809 27.877 49.0984 28.6599 50.0337 29.6451C50.1667 29.7847 50.3255 29.8955 50.5007 29.9711C50.6759 30.0467 50.864 30.0856 51.054 30.0854C51.054 13.4695 43.7065 0 34.6438 0Z" fill="url(#paint2_linear_1305_312)"/>
<path d="M26.4387 26.5339C27.7781 26.5292 29.1047 26.8023 30.3392 27.3369C31.5737 27.8715 32.6907 28.6565 33.6235 29.6451C33.7565 29.7847 33.9153 29.8955 34.0905 29.9711C34.2657 30.0467 34.4538 30.0856 34.6438 30.0854V0C25.5811 0 18.2336 13.4695 18.2336 30.0854C18.4236 30.0856 18.6117 30.0467 18.7869 29.9711C18.9621 29.8955 19.1209 29.7847 19.2539 29.6451C20.1867 28.6565 21.3037 27.8715 22.5382 27.3369C23.7726 26.8023 25.0992 26.5292 26.4387 26.5339Z" fill="url(#paint3_linear_1305_312)"/>
</g>
<g filter="url(#filter3_iiii_1305_312)">
<g clip-path="url(#clip1_1305_312)">
<rect x="20.4222" y="51.0586" width="27.9697" height="19.9414" rx="4" fill="#2EC4DA"/>
<path d="M46.8379 71H21.9757C21.1179 71 20.4222 70.3043 20.4222 69.446V52.6126C20.4222 51.7543 21.1179 51.0586 21.9757 51.0586H46.8379C47.6961 51.0586 48.3919 51.7543 48.3919 52.6126V69.446C48.3919 70.3043 47.6961 71 46.8379 71Z" fill="#2EC4DA"/>
<path d="M46.8379 71H21.9757C21.1179 71 20.4222 70.3043 20.4222 69.446V52.6126C20.4222 51.7543 21.1179 51.0586 21.9757 51.0586H46.8379C47.6961 51.0586 48.3919 51.7543 48.3919 52.6126V69.446C48.3919 70.3043 47.6961 71 46.8379 71Z" fill="url(#paint4_radial_1305_312)" fill-opacity="0.2"/>
<path d="M46.5935 71H21.7044C20.8457 71 20.1492 68.015 20.1492 64.3326V51H48.1492V64.3326C48.1492 68.015 47.4527 71 46.5935 71Z" fill="#1E99AB"/>
<path d="M46.5935 71H21.7044C20.8457 71 20.1492 68.015 20.1492 64.3326V51H48.1492V64.3326C48.1492 68.015 47.4527 71 46.5935 71Z" fill="black" fill-opacity="0.2"/>
</g>
</g>
<defs>
<filter id="filter0_iiii_1305_312" x="31" y="23" width="6" height="37" filterUnits="userSpaceOnUse" color-interpolation-filters="sRGB">
<feFlood flood-opacity="0" result="BackgroundImageFix"/>
<feBlend mode="normal" in="SourceGraphic" in2="BackgroundImageFix" result="shape"/>
<feColorMatrix in="SourceAlpha" type="matrix" values="0 0 0 0 0 0 0 0 0 0 0 0 0 0 0 0 0 0 127 0" result="hardAlpha"/>
<feOffset dx="-2" dy="2"/>
<feGaussianBlur stdDeviation="2"/>
<feComposite in2="hardAlpha" operator="arithmetic" k2="-1" k3="1"/>
<feColorMatrix type="matrix" values="0 0 0 0 1 0 0 0 0 1 0 0 0 0 1 0 0 0 0.25 0"/>
<feBlend mode="normal" in2="shape" result="effect1_innerShadow_1305_312"/>
<feColorMatrix in="SourceAlpha" type="matrix" values="0 0 0 0 0 0 0 0 0 0 0 0 0 0 0 0 0 0 127 0" result="hardAlpha"/>
<feMorphology radius="10" operator="dilate" in="SourceAlpha" result="effect2_innerShadow_1305_312"/>
<feOffset dx="-1" dy="2"/>
<feGaussianBlur stdDeviation="1"/>
<feComposite in2="hardAlpha" operator="arithmetic" k2="-1" k3="1"/>
<feColorMatrix type="matrix" values="0 0 0 0 1 0 0 0 0 1 0 0 0 0 1 0 0 0 0.5 0"/>
<feBlend mode="normal" in2="effect1_innerShadow_1305_312" result="effect2_innerShadow_1305_312"/>
<feColorMatrix in="SourceAlpha" type="matrix" values="0 0 0 0 0 0 0 0 0 0 0 0 0 0 0 0 0 0 127 0" result="hardAlpha"/>
<feOffset dx="1" dy="-2"/>
<feGaussianBlur stdDeviation="1"/>
<feComposite in2="hardAlpha" operator="arithmetic" k2="-1" k3="1"/>
<feColorMatrix type="matrix" values="0 0 0 0 0 0 0 0 0 0 0 0 0 0 0 0 0 0 0.15 0"/>
<feBlend mode="normal" in2="effect2_innerShadow_1305_312" result="effect3_innerShadow_1305_312"/>
<feColorMatrix in="SourceAlpha" type="matrix" values="0 0 0 0 0 0 0 0 0 0 0 0 0 0 0 0 0 0 127 0" result="hardAlpha"/>
<feMorphology radius="10" operator="dilate" in="SourceAlpha" result="effect4_innerShadow_1305_312"/>
<feOffset dy="-1"/>
<feGaussianBlur stdDeviation="1"/>
<feComposite in2="hardAlpha" operator="arithmetic" k2="-1" k3="1"/>
<feColorMatrix type="matrix" values="0 0 0 0 0 0 0 0 0 0 0 0 0 0 0 0 0 0 0.1 0"/>
<feBlend mode="normal" in2="effect3_innerShadow_1305_312" result="effect4_innerShadow_1305_312"/>
</filter>
<filter id="filter1_iiii_1305_312" x="0" y="25.3502" width="69.2876" height="33.1737" filterUnits="userSpaceOnUse" color-interpolation-filters="sRGB">
<feFlood flood-opacity="0" result="BackgroundImageFix"/>
<feBlend mode="normal" in="SourceGraphic" in2="BackgroundImageFix" result="shape"/>
<feColorMatrix in="SourceAlpha" type="matrix" values="0 0 0 0 0 0 0 0 0 0 0 0 0 0 0 0 0 0 127 0" result="hardAlpha"/>
<feOffset dy="2"/>
<feGaussianBlur stdDeviation="2"/>
<feComposite in2="hardAlpha" operator="arithmetic" k2="-1" k3="1"/>
<feColorMatrix type="matrix" values="0 0 0 0 1 0 0 0 0 1 0 0 0 0 1 0 0 0 0.25 0"/>
<feBlend mode="normal" in2="shape" result="effect1_innerShadow_1305_312"/>
<feColorMatrix in="SourceAlpha" type="matrix" values="0 0 0 0 0 0 0 0 0 0 0 0 0 0 0 0 0 0 127 0" result="hardAlpha"/>
<feMorphology radius="10" operator="dilate" in="SourceAlpha" result="effect2_innerShadow_1305_312"/>
<feOffset dy="2"/>
<feGaussianBlur stdDeviation="1"/>
<feComposite in2="hardAlpha" operator="arithmetic" k2="-1" k3="1"/>
<feColorMatrix type="matrix" values="0 0 0 0 1 0 0 0 0 1 0 0 0 0 1 0 0 0 0.5 0"/>
<feBlend mode="normal" in2="effect1_innerShadow_1305_312" result="effect2_innerShadow_1305_312"/>
<feColorMatrix in="SourceAlpha" type="matrix" values="0 0 0 0 0 0 0 0 0 0 0 0 0 0 0 0 0 0 127 0" result="hardAlpha"/>
<feOffset dy="-2"/>
<feGaussianBlur stdDeviation="1"/>
<feComposite in2="hardAlpha" operator="arithmetic" k2="-1" k3="1"/>
<feColorMatrix type="matrix" values="0 0 0 0 0 0 0 0 0 0 0 0 0 0 0 0 0 0 0.15 0"/>
<feBlend mode="normal" in2="effect2_innerShadow_1305_312" result="effect3_innerShadow_1305_312"/>
<feColorMatrix in="SourceAlpha" type="matrix" values="0 0 0 0 0 0 0 0 0 0 0 0 0 0 0 0 0 0 127 0" result="hardAlpha"/>
<feMorphology radius="10" operator="dilate" in="SourceAlpha" result="effect4_innerShadow_1305_312"/>
<feOffset dy="-1"/>
<feGaussianBlur stdDeviation="1"/>
<feComposite in2="hardAlpha" operator="arithmetic" k2="-1" k3="1"/>
<feColorMatrix type="matrix" values="0 0 0 0 0 0 0 0 0 0 0 0 0 0 0 0 0 0 0.1 0"/>
<feBlend mode="normal" in2="effect3_innerShadow_1305_312" result="effect4_innerShadow_1305_312"/>
</filter>
<filter id="filter2_iiii_1305_312" x="16.4103" y="24.4397" width="36.4672" height="34.0854" filterUnits="userSpaceOnUse" color-interpolation-filters="sRGB">
<feFlood flood-opacity="0" result="BackgroundImageFix"/>
<feBlend mode="normal" in="SourceGraphic" in2="BackgroundImageFix" result="shape"/>
<feColorMatrix in="SourceAlpha" type="matrix" values="0 0 0 0 0 0 0 0 0 0 0 0 0 0 0 0 0 0 127 0" result="hardAlpha"/>
<feOffset dy="2"/>
<feGaussianBlur stdDeviation="2"/>
<feComposite in2="hardAlpha" operator="arithmetic" k2="-1" k3="1"/>
<feColorMatrix type="matrix" values="0 0 0 0 1 0 0 0 0 1 0 0 0 0 1 0 0 0 0.25 0"/>
<feBlend mode="normal" in2="shape" result="effect1_innerShadow_1305_312"/>
<feColorMatrix in="SourceAlpha" type="matrix" values="0 0 0 0 0 0 0 0 0 0 0 0 0 0 0 0 0 0 127 0" result="hardAlpha"/>
<feMorphology radius="10" operator="dilate" in="SourceAlpha" result="effect2_innerShadow_1305_312"/>
<feOffset dy="2"/>
<feGaussianBlur stdDeviation="1"/>
<feComposite in2="hardAlpha" operator="arithmetic" k2="-1" k3="1"/>
<feColorMatrix type="matrix" values="0 0 0 0 1 0 0 0 0 1 0 0 0 0 1 0 0 0 0.5 0"/>
<feBlend mode="normal" in2="effect1_innerShadow_1305_312" result="effect2_innerShadow_1305_312"/>
<feColorMatrix in="SourceAlpha" type="matrix" values="0 0 0 0 0 0 0 0 0 0 0 0 0 0 0 0 0 0 127 0" result="hardAlpha"/>
<feOffset dy="-2"/>
<feGaussianBlur stdDeviation="1"/>
<feComposite in2="hardAlpha" operator="arithmetic" k2="-1" k3="1"/>
<feColorMatrix type="matrix" values="0 0 0 0 0 0 0 0 0 0 0 0 0 0 0 0 0 0 0.15 0"/>
<feBlend mode="normal" in2="effect2_innerShadow_1305_312" result="effect3_innerShadow_1305_312"/>
<feColorMatrix in="SourceAlpha" type="matrix" values="0 0 0 0 0 0 0 0 0 0 0 0 0 0 0 0 0 0 127 0" result="hardAlpha"/>
<feMorphology radius="10" operator="dilate" in="SourceAlpha" result="effect4_innerShadow_1305_312"/>
<feOffset dy="-1"/>
<feGaussianBlur stdDeviation="1"/>
<feComposite in2="hardAlpha" operator="arithmetic" k2="-1" k3="1"/>
<feColorMatrix type="matrix" values="0 0 0 0 0 0 0 0 0 0 0 0 0 0 0 0 0 0 0.1 0"/>
<feBlend mode="normal" in2="effect3_innerShadow_1305_312" result="effect4_innerShadow_1305_312"/>
</filter>
<filter id="filter3_iiii_1305_312" x="20.4222" y="48.0586" width="27.9697" height="26.9414" filterUnits="userSpaceOnUse" color-interpolation-filters="sRGB">
<feFlood flood-opacity="0" result="BackgroundImageFix"/>
<feBlend mode="normal" in="SourceGraphic" in2="BackgroundImageFix" result="shape"/>
<feColorMatrix in="SourceAlpha" type="matrix" values="0 0 0 0 0 0 0 0 0 0 0 0 0 0 0 0 0 0 127 0" result="hardAlpha"/>
<feOffset dy="4"/>
<feGaussianBlur stdDeviation="2"/>
<feComposite in2="hardAlpha" operator="arithmetic" k2="-1" k3="1"/>
<feColorMatrix type="matrix" values="0 0 0 0 1 0 0 0 0 1 0 0 0 0 1 0 0 0 0.25 0"/>
<feBlend mode="normal" in2="shape" result="effect1_innerShadow_1305_312"/>
<feColorMatrix in="SourceAlpha" type="matrix" values="0 0 0 0 0 0 0 0 0 0 0 0 0 0 0 0 0 0 127 0" result="hardAlpha"/>
<feMorphology radius="10" operator="dilate" in="SourceAlpha" result="effect2_innerShadow_1305_312"/>
<feOffset dy="2"/>
<feGaussianBlur stdDeviation="1"/>
<feComposite in2="hardAlpha" operator="arithmetic" k2="-1" k3="1"/>
<feColorMatrix type="matrix" values="0 0 0 0 1 0 0 0 0 1 0 0 0 0 1 0 0 0 0.3 0"/>
<feBlend mode="normal" in2="effect1_innerShadow_1305_312" result="effect2_innerShadow_1305_312"/>
<feColorMatrix in="SourceAlpha" type="matrix" values="0 0 0 0 0 0 0 0 0 0 0 0 0 0 0 0 0 0 127 0" result="hardAlpha"/>
<feMorphology radius="1" operator="dilate" in="SourceAlpha" result="effect3_innerShadow_1305_312"/>
<feOffset dy="-4"/>
<feGaussianBlur stdDeviation="2"/>
<feComposite in2="hardAlpha" operator="arithmetic" k2="-1" k3="1"/>
<feColorMatrix type="matrix" values="0 0 0 0 0 0 0 0 0 0 0 0 0 0 0 0 0 0 0.25 0"/>
<feBlend mode="normal" in2="effect2_innerShadow_1305_312" result="effect3_innerShadow_1305_312"/>
<feColorMatrix in="SourceAlpha" type="matrix" values="0 0 0 0 0 0 0 0 0 0 0 0 0 0 0 0 0 0 127 0" result="hardAlpha"/>
<feMorphology radius="10" operator="dilate" in="SourceAlpha" result="effect4_innerShadow_1305_312"/>
<feOffset dy="-1"/>
<feGaussianBlur stdDeviation="1"/>
<feComposite in2="hardAlpha" operator="arithmetic" k2="-1" k3="1"/>
<feColorMatrix type="matrix" values="0 0 0 0 0 0 0 0 0 0 0 0 0 0 0 0 0 0 0.5 0"/>
<feBlend mode="normal" in2="effect3_innerShadow_1305_312" result="effect4_innerShadow_1305_312"/>
</filter>
<linearGradient id="paint0_linear_1305_312" x1="21.4701" y1="6.41773" x2="39.9615" y2="44.3749" gradientUnits="userSpaceOnUse">
<stop stop-color="#6ADEEF"/>
<stop offset="1" stop-color="#1E99AB"/>
</linearGradient>
<linearGradient id="paint1_linear_1305_312" x1="-13.1737" y1="6.41773" x2="5.31767" y2="44.3749" gradientUnits="userSpaceOnUse">
<stop stop-color="#6ADEEF"/>
<stop offset="1" stop-color="#1E99AB"/>
</linearGradient>
<linearGradient id="paint2_linear_1305_312" x1="28.4036" y1="6.41773" x2="51.8771" y2="29.2418" gradientUnits="userSpaceOnUse">
<stop stop-color="#6ADEEF"/>
<stop offset="1" stop-color="#1E99AB"/>
</linearGradient>
<linearGradient id="paint3_linear_1305_312" x1="11.9934" y1="6.41773" x2="35.4669" y2="29.2418" gradientUnits="userSpaceOnUse">
<stop stop-color="#6ADEEF"/>
<stop offset="1" stop-color="#1E99AB"/>
</linearGradient>
<radialGradient id="paint4_radial_1305_312" cx="0" cy="0" r="1" gradientUnits="userSpaceOnUse" gradientTransform="translate(34.407 50.9881) rotate(90) scale(25.0209 35.0942)">
<stop stop-opacity="0"/>
<stop offset="1"/>
</radialGradient>
<clipPath id="clip0_1305_312">
<rect width="69.2876" height="30.0854" fill="white"/>
</clipPath>
<clipPath id="clip1_1305_312">
<rect x="20.4222" y="51.0586" width="27.9697" height="19.9414" rx="4" fill="white"/>
</clipPath>
</defs>
</svg>
