<svg width="18" height="20" viewBox="0 0 18 20" fill="none" xmlns="http://www.w3.org/2000/svg">
<path fill-rule="evenodd" clip-rule="evenodd" d="M9.42058 9.75465e-06H15.6706C16.5897 9.75465e-06 17.3372 0.747469 17.3372 1.66669V18.3333C17.3372 19.2525 16.5897 20 15.6706 20H2.33728C1.41806 20 0.670603 19.2525 0.670603 18.3333V8.75003C0.670603 8.63933 0.714548 8.53354 0.792673 8.45542L3.83142 5.41668L3.1706 4.75586L3.04853 4.87793C2.96712 4.95929 2.86052 5 2.75392 5C2.64732 5 2.54072 4.95929 2.45935 4.87793L0.792673 3.21125C0.6299 3.04852 0.6299 2.78485 0.792673 2.62207L3.29267 0.12208C3.4554 -0.0406933 3.71907 -0.0406933 3.88185 0.12208L5.54852 1.78876C5.71129 1.95149 5.71129 2.21516 5.54852 2.37793L5.42645 2.5L6.08723 3.16082L9.12597 0.12208C9.2041 0.043955 9.30992 9.75465e-06 9.42058 9.75465e-06ZM7.75391 5H14.0039C14.9231 5 15.6706 4.25258 15.6706 3.33336C15.6706 2.41414 14.9231 1.66669 14.0039 1.66669H10.2539C10.1432 1.66669 10.0375 1.71063 9.95933 1.78876L7.45934 4.28875C7.34008 4.40797 7.3043 4.58699 7.36899 4.74285C7.43328 4.89867 7.58543 5 7.75391 5ZM11.7253 13.7689C11.7253 11.725 8.99801 9.09375 8.99801 9.09375C8.99801 9.09375 6.27075 11.725 6.27075 13.7689C6.27075 15.2012 7.4942 16.3665 8.99801 16.3665C10.5018 16.3665 11.7253 15.2012 11.7253 13.7689Z" fill="white"/>
</svg>
