<svg width="20" height="21" viewBox="0 0 20 21" fill="none" xmlns="http://www.w3.org/2000/svg">
<path fill-rule="evenodd" clip-rule="evenodd" d="M7.99291 4.20013C8.88489 2.59996 11.1152 2.59996 12.0064 4.20013L17.6865 14.3996C18.5777 15.9998 17.4626 18 15.6794 18H4.31997C2.53678 18 1.42239 15.9998 2.31359 14.3996L7.99214 4.20013H7.99291ZM10.0001 8.39818C10.1537 8.39818 10.301 8.4614 10.4096 8.57393C10.5182 8.68646 10.5793 8.83909 10.5793 8.99824V11.9986C10.5793 12.1577 10.5182 12.3103 10.4096 12.4229C10.301 12.5354 10.1537 12.5986 10.0001 12.5986C9.84644 12.5986 9.69912 12.5354 9.5905 12.4229C9.48187 12.3103 9.42085 12.1577 9.42085 11.9986V8.99824C9.42085 8.83909 9.48187 8.68646 9.5905 8.57393C9.69912 8.4614 9.84644 8.39818 10.0001 8.39818ZM10.0001 14.9989C10.1537 14.9989 10.301 14.9357 10.4096 14.8231C10.5182 14.7106 10.5793 14.558 10.5793 14.3988C10.5793 14.2397 10.5182 14.087 10.4096 13.9745C10.301 13.862 10.1537 13.7988 10.0001 13.7988C9.84644 13.7988 9.69912 13.862 9.5905 13.9745C9.48187 14.087 9.42085 14.2397 9.42085 14.3988C9.42085 14.558 9.48187 14.7106 9.5905 14.8231C9.69912 14.9357 9.84644 14.9989 10.0001 14.9989Z" fill="white"/>
</svg>
