<svg width="24" height="24" viewBox="0 0 24 24" fill="none" xmlns="http://www.w3.org/2000/svg">
<path fill-rule="evenodd" clip-rule="evenodd" d="M5.24875 9C5.24875 7.20979 5.95991 5.4929 7.22578 4.22703C8.49165 2.96116 10.2085 2.25 11.9988 2.25C13.789 2.25 15.5059 2.96116 16.7717 4.22703C18.0376 5.4929 18.7488 7.20979 18.7488 9V9.75C18.7488 11.873 19.5488 13.807 20.8668 15.27C20.9489 15.361 21.0074 15.4707 21.0373 15.5896C21.0672 15.7084 21.0675 15.8328 21.0382 15.9518C21.0089 16.0708 20.9508 16.1808 20.8692 16.2722C20.7875 16.3636 20.6847 16.4335 20.5698 16.476C19.0258 17.046 17.4098 17.466 15.7388 17.719C15.7764 18.2331 15.7076 18.7495 15.5367 19.2359C15.3658 19.7222 15.0964 20.1681 14.7455 20.5457C14.3945 20.9233 13.9694 21.2245 13.4968 21.4304C13.0242 21.6364 12.5143 21.7427 11.9988 21.7427C11.4832 21.7427 10.9733 21.6364 10.5007 21.4304C10.0281 21.2245 9.60302 20.9233 9.25205 20.5457C8.90107 20.1681 8.63173 19.7222 8.46082 19.2359C8.28992 18.7495 8.22113 18.2331 8.25875 17.719C6.6104 17.4692 4.99174 17.0524 3.42775 16.475C3.31289 16.4326 3.21015 16.3627 3.12851 16.2715C3.04688 16.1802 2.98883 16.0703 2.95943 15.9515C2.93004 15.8326 2.93019 15.7084 2.95988 15.5896C2.98957 15.4708 3.04789 15.3611 3.12975 15.27C4.49656 13.7567 5.25183 11.7892 5.24875 9.75V9ZM9.75075 17.9C9.73796 18.2032 9.78663 18.5058 9.89384 18.7897C10.001 19.0736 10.1646 19.3329 10.3746 19.5519C10.5846 19.771 10.8367 19.9453 11.1158 20.0644C11.395 20.1835 11.6953 20.2448 11.9988 20.2448C12.3022 20.2448 12.6025 20.1835 12.8817 20.0644C13.1608 19.9453 13.4129 19.771 13.6229 19.5519C13.8329 19.3329 13.9965 19.0736 14.1037 18.7897C14.2109 18.5058 14.2595 18.2032 14.2468 17.9C12.7511 18.0347 11.2464 18.0347 9.75075 17.9Z" fill="white"/>
</svg>
