<svg width="20" height="21" viewBox="0 0 20 21" fill="none" xmlns="http://www.w3.org/2000/svg">
<path fill-rule="evenodd" clip-rule="evenodd" d="M10.3505 2.16676H15.5588C16.3248 2.16676 16.9477 2.78964 16.9477 3.55565V17.4445C16.9477 18.2105 16.3248 18.8334 15.5588 18.8334H4.44774C3.68173 18.8334 3.05885 18.2105 3.05885 17.4445V9.45844C3.05885 9.36619 3.09547 9.27803 3.16057 9.21293L5.69286 6.68064L5.14217 6.12996L5.04045 6.23169C4.97261 6.29949 4.88378 6.33341 4.79494 6.33341C4.70611 6.33341 4.61727 6.29949 4.54947 6.23169L3.16057 4.84279C3.02493 4.70718 3.02493 4.48745 3.16057 4.35181L5.2439 2.26848C5.37951 2.13284 5.59924 2.13284 5.73488 2.26848L7.12378 3.65738C7.25942 3.79299 7.25942 4.01272 7.12378 4.14836L7.02205 4.25008L7.5727 4.80077L10.105 2.26848C10.1701 2.20338 10.2583 2.16676 10.3505 2.16676ZM8.9616 6.33341H14.1699C14.9359 6.33341 15.5588 5.71056 15.5588 4.94455C15.5588 4.17854 14.9359 3.55565 14.17 3.55565H11.045C10.9527 3.55565 10.8646 3.59227 10.7995 3.65738L8.71612 5.74071C8.61674 5.84005 8.58693 5.98924 8.64083 6.11912C8.69441 6.24897 8.8212 6.33341 8.9616 6.33341ZM12.2711 13.6408C12.2711 11.9376 9.99836 9.74487 9.99836 9.74487C9.99836 9.74487 7.72563 11.9376 7.72563 13.6408C7.72563 14.8344 8.74518 15.8055 9.99836 15.8055C11.2515 15.8055 12.2711 14.8344 12.2711 13.6408Z" fill="white" fill-opacity="0.7"/>
</svg>
