<svg width="16" height="17" viewBox="0 0 16 17" fill="none" xmlns="http://www.w3.org/2000/svg">
<path fill-rule="evenodd" clip-rule="evenodd" d="M0 8.5C0 4.08154 3.58154 0.5 8 0.5C12.4185 0.5 16 4.08154 16 8.5C16 12.9185 12.4185 16.5 8 16.5C3.58154 16.5 0 12.9185 0 8.5ZM10.9621 7.01159C11.0113 6.94599 11.0469 6.87121 11.0668 6.79165C11.0867 6.71209 11.0906 6.62935 11.078 6.54829C11.0655 6.46723 11.0369 6.3895 10.9939 6.31965C10.9509 6.2498 10.8944 6.18925 10.8277 6.14156C10.761 6.09387 10.6854 6.05999 10.6054 6.04193C10.5254 6.02387 10.4426 6.02198 10.3618 6.03638C10.2811 6.05078 10.204 6.08117 10.1352 6.12577C10.0664 6.17038 10.0072 6.22829 9.96103 6.2961L7.30585 10.013L5.97333 8.68051C5.85668 8.57181 5.70238 8.51263 5.54296 8.51545C5.38353 8.51826 5.23142 8.58284 5.11867 8.69559C5.00592 8.80834 4.94134 8.96045 4.93852 9.11988C4.93571 9.27931 4.99489 9.4336 5.10359 9.55026L6.94974 11.3964C7.01291 11.4595 7.08907 11.5082 7.17291 11.5389C7.25676 11.5696 7.34629 11.5817 7.43529 11.5744C7.52429 11.5671 7.61063 11.5404 7.68831 11.4964C7.76599 11.4523 7.83315 11.3919 7.88513 11.3193L10.9621 7.01159Z" fill="white"/>
</svg>
