<svg width="14" height="13" viewBox="0 0 14 13" fill="none" xmlns="http://www.w3.org/2000/svg">
<path fill-rule="evenodd" clip-rule="evenodd" d="M7 0C3.41 0 0.5 2.91 0.5 6.5C0.5 10.09 3.41 13 7 13C10.59 13 13.5 10.09 13.5 6.5C13.5 2.91 10.59 0 7 0ZM7.5 2.5C7.5 2.36739 7.44732 2.24021 7.35355 2.14645C7.25979 2.05268 7.13261 2 7 2C6.86739 2 6.74022 2.05268 6.64645 2.14645C6.55268 2.24021 6.5 2.36739 6.5 2.5V6.5C6.5 6.776 6.724 7 7 7H10C10.1326 7 10.2598 6.94732 10.3536 6.85355C10.4473 6.75979 10.5 6.63261 10.5 6.5C10.5 6.36739 10.4473 6.24022 10.3536 6.14645C10.2598 6.05268 10.1326 6 10 6H7.5V2.5Z" fill="white" fill-opacity="0.7"/>
</svg>
