<svg width="66" height="75" viewBox="0 0 66 75" fill="none" xmlns="http://www.w3.org/2000/svg">
<g filter="url(#filter0_iiii_1305_1033)">
<rect x="14" width="52" height="60.6667" rx="6" fill="#8932AA"/>
<rect x="14" width="52" height="60.6667" rx="6" fill="url(#paint0_radial_1305_1033)" fill-opacity="0.1"/>
</g>
<g filter="url(#filter1_iiii_1305_1033)">
<rect y="14" width="52" height="60.6667" rx="6" fill="#D872FF"/>
<rect y="14" width="52" height="60.6667" rx="6" fill="url(#paint1_radial_1305_1033)" fill-opacity="0.1"/>
</g>
<mask id="mask0_1305_1033" style="mask-type:alpha" maskUnits="userSpaceOnUse" x="4" y="18" width="44" height="52">
<rect x="4.97168" y="18.6602" width="42.0952" height="50.7619" rx="2" fill="#8932AA"/>
<rect x="4.97168" y="18.6602" width="42.0952" height="50.7619" rx="2" fill="black" fill-opacity="0.4"/>
</mask>
<g mask="url(#mask0_1305_1033)">
<g filter="url(#filter2_f_1305_1033)">
<path d="M42.9061 46.3193C42.9061 50.2548 33.1434 53.8197 33.1434 60.2257C33.1434 63.0262 32.3639 64.9686 31.229 66.2635C30.094 67.5584 28.1538 67.9053 26.0214 67.9053C23.889 67.9053 21.9488 67.5584 20.8138 66.2635C19.6789 64.9686 18.8994 63.0262 18.8994 60.2257C18.8994 53.8197 9.13672 50.2548 9.13672 46.3193C9.13672 42.3838 14.8496 39.4639 14.8496 39.4639C14.8496 28.8735 20.2806 26.4766 22.1722 25.9637C22.4972 25.8749 22.8146 26.1186 22.8146 26.4538V36.7979L26.0214 38.0674L29.2282 36.7979V26.4538C29.2282 26.1186 29.5456 25.8749 29.8706 25.9637C31.7622 26.4766 37.1932 28.8735 37.1932 39.4639C37.1932 39.4639 42.9061 42.3838 42.9061 46.3193Z" fill="black" fill-opacity="0.3"/>
</g>
<g filter="url(#filter3_iiii_1305_1033)">
<path d="M18.6429 54.3809C18.8092 54.9524 18.9014 55.5478 18.9014 56.1702C18.9014 62.5762 22.9755 64.4805 26.0224 64.4805C29.0692 64.4805 33.1434 62.5762 33.1434 56.1702C33.1434 55.5478 33.2356 54.9524 33.4019 54.3809L33.4019 52.4956L34.7712 51.7055C37.5489 47.8913 42.9068 45.1791 42.9068 42.2638C42.9068 38.3283 37.1939 35.4083 37.1939 35.4083C37.1939 24.82 31.7627 22.4226 29.87 21.9087C29.5463 21.8209 29.2289 22.0639 29.2289 22.3993C29.2289 22.3993 29.2022 23.149 29.2289 23.6282C29.3318 25.4727 30.4985 26.3378 30.4985 28.1853C30.4985 30.0327 29.2289 32.7423 29.2289 32.7423L26.0219 34.0119L22.8148 32.7423C22.8148 32.7423 21.5453 30.0327 21.5453 28.1853C21.5453 26.3378 22.7119 25.4727 22.8148 23.6282C22.8415 23.149 22.8148 22.3993 22.8148 22.3993C22.8148 22.0639 22.4974 21.8209 22.1737 21.9087C20.2818 22.4229 14.8506 24.8203 14.8506 35.4086C14.8506 35.4086 9.1377 38.3285 9.1377 42.264C9.1377 45.1794 14.4956 47.8913 17.2733 51.7057L18.5957 52.4959L18.6429 54.3809Z" fill="#D872FF"/>
<path d="M18.6429 54.3809C18.8092 54.9524 18.9014 55.5478 18.9014 56.1702C18.9014 62.5762 22.9755 64.4805 26.0224 64.4805C29.0692 64.4805 33.1434 62.5762 33.1434 56.1702C33.1434 55.5478 33.2356 54.9524 33.4019 54.3809L33.4019 52.4956L34.7712 51.7055C37.5489 47.8913 42.9068 45.1791 42.9068 42.2638C42.9068 38.3283 37.1939 35.4083 37.1939 35.4083C37.1939 24.82 31.7627 22.4226 29.87 21.9087C29.5463 21.8209 29.2289 22.0639 29.2289 22.3993C29.2289 22.3993 29.2022 23.149 29.2289 23.6282C29.3318 25.4727 30.4985 26.3378 30.4985 28.1853C30.4985 30.0327 29.2289 32.7423 29.2289 32.7423L26.0219 34.0119L22.8148 32.7423C22.8148 32.7423 21.5453 30.0327 21.5453 28.1853C21.5453 26.3378 22.7119 25.4727 22.8148 23.6282C22.8415 23.149 22.8148 22.3993 22.8148 22.3993C22.8148 22.0639 22.4974 21.8209 22.1737 21.9087C20.2818 22.4229 14.8506 24.8203 14.8506 35.4086C14.8506 35.4086 9.1377 38.3285 9.1377 42.264C9.1377 45.1794 14.4956 47.8913 17.2733 51.7057L18.5957 52.4959L18.6429 54.3809Z" fill="url(#paint2_radial_1305_1033)" fill-opacity="0.6"/>
</g>
<path d="M22.3867 42.7989C23.4692 42.5087 24.0436 41.1427 23.6697 39.7479C23.2957 38.3531 22.115 37.4576 21.0324 37.7479C19.9498 38.0381 19.3754 39.4042 19.7494 40.799C20.1234 42.1938 21.3041 43.0892 22.3867 42.7989Z" fill="#612179"/>
<path d="M32.5659 40.8477C32.9344 39.4731 32.3683 38.1269 31.3015 37.8409C30.2346 37.5549 29.071 38.4373 28.7025 39.8119C28.3339 41.1865 28.9 42.5327 29.9669 42.8187C31.0337 43.1047 32.1973 42.2223 32.5659 40.8477Z" fill="#612179"/>
<path d="M25.858 51.6151C25.6066 54.3735 25.0559 59.1165 24.1289 60.8202C24.1289 60.8202 24.349 62.0074 26.0223 62.0074C27.6955 62.0074 27.9156 60.8202 27.9156 60.8202C26.9886 59.1165 26.4379 54.3735 26.1866 51.6151C26.1683 51.4148 25.8763 51.4148 25.858 51.6151Z" fill="#612179"/>
</g>
<defs>
<filter id="filter0_iiii_1305_1033" x="14" y="-3" width="52" height="67.6666" filterUnits="userSpaceOnUse" color-interpolation-filters="sRGB">
<feFlood flood-opacity="0" result="BackgroundImageFix"/>
<feBlend mode="normal" in="SourceGraphic" in2="BackgroundImageFix" result="shape"/>
<feColorMatrix in="SourceAlpha" type="matrix" values="0 0 0 0 0 0 0 0 0 0 0 0 0 0 0 0 0 0 127 0" result="hardAlpha"/>
<feOffset dy="4"/>
<feGaussianBlur stdDeviation="2"/>
<feComposite in2="hardAlpha" operator="arithmetic" k2="-1" k3="1"/>
<feColorMatrix type="matrix" values="0 0 0 0 1 0 0 0 0 1 0 0 0 0 1 0 0 0 0.25 0"/>
<feBlend mode="normal" in2="shape" result="effect1_innerShadow_1305_1033"/>
<feColorMatrix in="SourceAlpha" type="matrix" values="0 0 0 0 0 0 0 0 0 0 0 0 0 0 0 0 0 0 127 0" result="hardAlpha"/>
<feMorphology radius="10" operator="dilate" in="SourceAlpha" result="effect2_innerShadow_1305_1033"/>
<feOffset dy="10"/>
<feGaussianBlur stdDeviation="1"/>
<feComposite in2="hardAlpha" operator="arithmetic" k2="-1" k3="1"/>
<feColorMatrix type="matrix" values="0 0 0 0 1 0 0 0 0 1 0 0 0 0 1 0 0 0 0.5 0"/>
<feBlend mode="normal" in2="effect1_innerShadow_1305_1033" result="effect2_innerShadow_1305_1033"/>
<feColorMatrix in="SourceAlpha" type="matrix" values="0 0 0 0 0 0 0 0 0 0 0 0 0 0 0 0 0 0 127 0" result="hardAlpha"/>
<feOffset dy="-3"/>
<feGaussianBlur stdDeviation="2"/>
<feComposite in2="hardAlpha" operator="arithmetic" k2="-1" k3="1"/>
<feColorMatrix type="matrix" values="0 0 0 0 0 0 0 0 0 0 0 0 0 0 0 0 0 0 0.25 0"/>
<feBlend mode="normal" in2="effect2_innerShadow_1305_1033" result="effect3_innerShadow_1305_1033"/>
<feColorMatrix in="SourceAlpha" type="matrix" values="0 0 0 0 0 0 0 0 0 0 0 0 0 0 0 0 0 0 127 0" result="hardAlpha"/>
<feMorphology radius="10" operator="dilate" in="SourceAlpha" result="effect4_innerShadow_1305_1033"/>
<feOffset dy="-10"/>
<feGaussianBlur stdDeviation="1"/>
<feComposite in2="hardAlpha" operator="arithmetic" k2="-1" k3="1"/>
<feColorMatrix type="matrix" values="0 0 0 0 0 0 0 0 0 0 0 0 0 0 0 0 0 0 0.5 0"/>
<feBlend mode="normal" in2="effect3_innerShadow_1305_1033" result="effect4_innerShadow_1305_1033"/>
</filter>
<filter id="filter1_iiii_1305_1033" x="0" y="11" width="52" height="67.6666" filterUnits="userSpaceOnUse" color-interpolation-filters="sRGB">
<feFlood flood-opacity="0" result="BackgroundImageFix"/>
<feBlend mode="normal" in="SourceGraphic" in2="BackgroundImageFix" result="shape"/>
<feColorMatrix in="SourceAlpha" type="matrix" values="0 0 0 0 0 0 0 0 0 0 0 0 0 0 0 0 0 0 127 0" result="hardAlpha"/>
<feOffset dy="4"/>
<feGaussianBlur stdDeviation="2"/>
<feComposite in2="hardAlpha" operator="arithmetic" k2="-1" k3="1"/>
<feColorMatrix type="matrix" values="0 0 0 0 1 0 0 0 0 1 0 0 0 0 1 0 0 0 0.25 0"/>
<feBlend mode="normal" in2="shape" result="effect1_innerShadow_1305_1033"/>
<feColorMatrix in="SourceAlpha" type="matrix" values="0 0 0 0 0 0 0 0 0 0 0 0 0 0 0 0 0 0 127 0" result="hardAlpha"/>
<feMorphology radius="10" operator="dilate" in="SourceAlpha" result="effect2_innerShadow_1305_1033"/>
<feOffset dy="10"/>
<feGaussianBlur stdDeviation="1"/>
<feComposite in2="hardAlpha" operator="arithmetic" k2="-1" k3="1"/>
<feColorMatrix type="matrix" values="0 0 0 0 1 0 0 0 0 1 0 0 0 0 1 0 0 0 0.5 0"/>
<feBlend mode="normal" in2="effect1_innerShadow_1305_1033" result="effect2_innerShadow_1305_1033"/>
<feColorMatrix in="SourceAlpha" type="matrix" values="0 0 0 0 0 0 0 0 0 0 0 0 0 0 0 0 0 0 127 0" result="hardAlpha"/>
<feOffset dy="-3"/>
<feGaussianBlur stdDeviation="2"/>
<feComposite in2="hardAlpha" operator="arithmetic" k2="-1" k3="1"/>
<feColorMatrix type="matrix" values="0 0 0 0 0 0 0 0 0 0 0 0 0 0 0 0 0 0 0.25 0"/>
<feBlend mode="normal" in2="effect2_innerShadow_1305_1033" result="effect3_innerShadow_1305_1033"/>
<feColorMatrix in="SourceAlpha" type="matrix" values="0 0 0 0 0 0 0 0 0 0 0 0 0 0 0 0 0 0 127 0" result="hardAlpha"/>
<feMorphology radius="10" operator="dilate" in="SourceAlpha" result="effect4_innerShadow_1305_1033"/>
<feOffset dy="-10"/>
<feGaussianBlur stdDeviation="1"/>
<feComposite in2="hardAlpha" operator="arithmetic" k2="-1" k3="1"/>
<feColorMatrix type="matrix" values="0 0 0 0 0 0 0 0 0 0 0 0 0 0 0 0 0 0 0.5 0"/>
<feBlend mode="normal" in2="effect3_innerShadow_1305_1033" result="effect4_innerShadow_1305_1033"/>
</filter>
<filter id="filter2_f_1305_1033" x="5.13672" y="21.9453" width="41.7693" height="49.96" filterUnits="userSpaceOnUse" color-interpolation-filters="sRGB">
<feFlood flood-opacity="0" result="BackgroundImageFix"/>
<feBlend mode="normal" in="SourceGraphic" in2="BackgroundImageFix" result="shape"/>
<feGaussianBlur stdDeviation="2" result="effect1_foregroundBlur_1305_1033"/>
</filter>
<filter id="filter3_iiii_1305_1033" x="9.1377" y="19.8906" width="33.7691" height="48.5898" filterUnits="userSpaceOnUse" color-interpolation-filters="sRGB">
<feFlood flood-opacity="0" result="BackgroundImageFix"/>
<feBlend mode="normal" in="SourceGraphic" in2="BackgroundImageFix" result="shape"/>
<feColorMatrix in="SourceAlpha" type="matrix" values="0 0 0 0 0 0 0 0 0 0 0 0 0 0 0 0 0 0 127 0" result="hardAlpha"/>
<feOffset dy="4"/>
<feGaussianBlur stdDeviation="2"/>
<feComposite in2="hardAlpha" operator="arithmetic" k2="-1" k3="1"/>
<feColorMatrix type="matrix" values="0 0 0 0 1 0 0 0 0 1 0 0 0 0 1 0 0 0 0.25 0"/>
<feBlend mode="normal" in2="shape" result="effect1_innerShadow_1305_1033"/>
<feColorMatrix in="SourceAlpha" type="matrix" values="0 0 0 0 0 0 0 0 0 0 0 0 0 0 0 0 0 0 127 0" result="hardAlpha"/>
<feMorphology radius="10" operator="dilate" in="SourceAlpha" result="effect2_innerShadow_1305_1033"/>
<feOffset dy="2"/>
<feGaussianBlur stdDeviation="1"/>
<feComposite in2="hardAlpha" operator="arithmetic" k2="-1" k3="1"/>
<feColorMatrix type="matrix" values="0 0 0 0 1 0 0 0 0 1 0 0 0 0 1 0 0 0 0.3 0"/>
<feBlend mode="normal" in2="effect1_innerShadow_1305_1033" result="effect2_innerShadow_1305_1033"/>
<feColorMatrix in="SourceAlpha" type="matrix" values="0 0 0 0 0 0 0 0 0 0 0 0 0 0 0 0 0 0 127 0" result="hardAlpha"/>
<feOffset dy="-2"/>
<feGaussianBlur stdDeviation="2"/>
<feComposite in2="hardAlpha" operator="arithmetic" k2="-1" k3="1"/>
<feColorMatrix type="matrix" values="0 0 0 0 0 0 0 0 0 0 0 0 0 0 0 0 0 0 0.25 0"/>
<feBlend mode="overlay" in2="effect2_innerShadow_1305_1033" result="effect3_innerShadow_1305_1033"/>
<feColorMatrix in="SourceAlpha" type="matrix" values="0 0 0 0 0 0 0 0 0 0 0 0 0 0 0 0 0 0 127 0" result="hardAlpha"/>
<feMorphology radius="10" operator="dilate" in="SourceAlpha" result="effect4_innerShadow_1305_1033"/>
<feOffset dy="-2"/>
<feGaussianBlur stdDeviation="1"/>
<feComposite in2="hardAlpha" operator="arithmetic" k2="-1" k3="1"/>
<feColorMatrix type="matrix" values="0 0 0 0 0 0 0 0 0 0 0 0 0 0 0 0 0 0 0.2 0"/>
<feBlend mode="overlay" in2="effect3_innerShadow_1305_1033" result="effect4_innerShadow_1305_1033"/>
</filter>
<radialGradient id="paint0_radial_1305_1033" cx="0" cy="0" r="1" gradientUnits="userSpaceOnUse" gradientTransform="translate(46.4569 3.28086) rotate(111.194) scale(59.7709 53.6503)">
<stop stop-opacity="0.4"/>
<stop offset="1"/>
</radialGradient>
<radialGradient id="paint1_radial_1305_1033" cx="0" cy="0" r="1" gradientUnits="userSpaceOnUse" gradientTransform="translate(32.4569 17.2809) rotate(111.194) scale(59.7709 53.6503)">
<stop stop-opacity="0.4"/>
<stop offset="1"/>
</radialGradient>
<radialGradient id="paint2_radial_1305_1033" cx="0" cy="0" r="1" gradientUnits="userSpaceOnUse" gradientTransform="translate(30.2154 24.1939) rotate(109.732) scale(41.5634 35.1741)">
<stop stop-color="white" stop-opacity="0.4"/>
<stop offset="1" stop-color="white"/>
</radialGradient>
</defs>
</svg>
