<svg width="105" height="106" viewBox="0 0 105 106" fill="none" xmlns="http://www.w3.org/2000/svg">
<path d="M52.5 105.5C81.4949 105.5 105 81.9949 105 53C105 24.005 81.4949 0.5 52.5 0.5C23.505 0.5 0 24.005 0 53C0 81.9949 23.505 105.5 52.5 105.5Z" fill="#627EEA"/>
<path d="M52.5 13.625V42.7297L77.0995 53.7219L52.5 13.625Z" fill="white" fill-opacity="0.602"/>
<path d="M54.1341 13.625L29.5312 53.7219L54.1341 42.7297V13.625Z" fill="white"/>
<path d="M52.5 73.8425V93.6186L77.1159 59.5625L52.5 73.8425Z" fill="white" fill-opacity="0.602"/>
<path d="M54.1341 93.6186V73.8392L29.5312 59.5625L54.1341 93.6186Z" fill="white"/>
<path d="M52.5 68.4252L77.0995 54.1419L52.5 43.1562V68.4252Z" fill="white" fill-opacity="0.2"/>
<path d="M29.5312 54.1419L54.1341 68.4252V43.1562L29.5312 54.1419Z" fill="white" fill-opacity="0.602"/>
</svg>
