<svg width="130" height="32" viewBox="0 0 130 32" fill="none" xmlns="http://www.w3.org/2000/svg">
<path d="M14.1707 30.1716L15.9993 32.0002L31.9998 15.9997L17.8279 1.82782L5.94182 13.7139L10.0562 17.8284L17.8279 10.0567L26.0568 18.2855L14.1707 30.1716Z" fill="#FF5A19"/>
<path d="M17.8291 1.82858L16.0005 -5.72205e-05L-1.14441e-05 16.0005L14.1719 30.1724L26.058 18.2863L21.9436 14.1718L14.1719 21.9435L5.94304 13.7147L17.8291 1.82858Z" fill="white"/>
<path d="M107.847 15.8206C107.425 15.8206 107.041 15.7095 106.697 15.4873C106.352 15.2539 106.074 14.9539 105.863 14.5873C105.652 14.2206 105.547 13.8317 105.547 13.4206V6.17037C105.547 5.73703 105.652 5.34813 105.863 5.00368C106.074 4.64811 106.352 4.36477 106.697 4.15365C107.041 3.93143 107.425 3.82031 107.847 3.82031H115.13C115.553 3.82031 115.936 3.93143 116.28 4.15365C116.625 4.36477 116.903 4.64811 117.114 5.00368C117.325 5.34813 117.43 5.73703 117.43 6.17037V13.4206C117.43 13.8317 117.325 14.2206 117.114 14.5873C116.903 14.9539 116.625 15.2539 116.28 15.4873C115.936 15.7095 115.553 15.8206 115.13 15.8206H107.847ZM108.73 13.5206H115.047C115.102 13.5206 115.147 13.5039 115.18 13.4706C115.225 13.4261 115.247 13.3761 115.247 13.3206V8.08709L108.73 13.5206ZM107.73 11.4872L114.247 6.0537H107.93C107.875 6.0537 107.825 6.07593 107.78 6.12037C107.747 6.15371 107.73 6.19815 107.73 6.25371V11.4872Z" fill="#FF5A19"/>
<path d="M119.263 15.8206V15.2373L122.814 10.9038L119.263 6.73706V6.15371H121.63L124.23 9.22045L126.83 6.15371H129.197V6.73706L125.647 10.9038L129.197 15.2373V15.8206H126.847L124.23 12.6205L121.63 15.8206H119.263Z" fill="#FF5A19"/>
<path d="M36.9998 15.8206V3.82031H46.6667C47.089 3.82031 47.4779 3.92587 47.8334 4.13699C48.189 4.3481 48.4723 4.63144 48.6835 4.98701C48.8946 5.33146 49.0001 5.71481 49.0001 6.13704V13.5039C49.0001 13.9261 48.8946 14.315 48.6835 14.6706C48.4723 15.0151 48.189 15.2928 47.8334 15.504C47.4779 15.7151 47.089 15.8206 46.6667 15.8206H36.9998ZM39.3832 13.6039H46.5667C46.6223 13.6039 46.6723 13.5872 46.7167 13.5539C46.7612 13.5095 46.7834 13.4595 46.7834 13.4039V6.23704C46.7834 6.18149 46.7612 6.13704 46.7167 6.10371C46.6723 6.05926 46.6223 6.03704 46.5667 6.03704H39.3832C39.3277 6.03704 39.2777 6.05926 39.2332 6.10371C39.1999 6.13704 39.1832 6.18149 39.1832 6.23704V13.4039C39.1832 13.4595 39.1999 13.5095 39.2332 13.5539C39.2777 13.5872 39.3277 13.6039 39.3832 13.6039Z" fill="white"/>
<path d="M53.15 15.8206C52.7277 15.8206 52.3388 15.7151 51.9833 15.504C51.6388 15.2928 51.361 15.0151 51.1499 14.6706C50.9388 14.315 50.8333 13.9261 50.8333 13.5039V3.82031H53.0333V13.4039C53.0333 13.4595 53.05 13.5095 53.0833 13.5539C53.1278 13.5872 53.1778 13.6039 53.2333 13.6039H60.4002C60.4557 13.6039 60.5057 13.5872 60.5502 13.5539C60.5946 13.5095 60.6168 13.4595 60.6168 13.4039V3.82031H62.8336V13.5039C62.8336 13.9261 62.728 14.315 62.5169 14.6706C62.3058 15.0151 62.0224 15.2928 61.6669 15.504C61.3224 15.7151 60.9391 15.8206 60.5168 15.8206H53.15Z" fill="white"/>
<path d="M68.9691 15.8206V6.03704H64.069V3.82031H76.0693V6.03704H71.1859V15.8206H68.9691Z" fill="white"/>
<path d="M79.6326 15.8206C79.2103 15.8206 78.8214 15.7151 78.4659 15.504C78.1214 15.2928 77.8436 15.0151 77.6325 14.6706C77.4214 14.315 77.3158 13.9261 77.3158 13.5039V6.13704C77.3158 5.71481 77.4214 5.33146 77.6325 4.98701C77.8436 4.63144 78.1214 4.3481 78.4659 4.13699C78.8214 3.92587 79.2103 3.82031 79.6326 3.82031H89.2828V6.03704H80.0993C79.9215 6.03704 79.777 6.08704 79.6659 6.18704C79.5659 6.28704 79.5159 6.43149 79.5159 6.62039V13.0206C79.5159 13.1983 79.5659 13.3428 79.6659 13.4539C79.777 13.5539 79.9215 13.6039 80.0993 13.6039H89.2828V15.8206H79.6326Z" fill="white"/>
<path d="M91.0373 15.8206V3.82031H93.2374V8.70377H101.104V3.82031H103.304V15.8206H101.104V10.9372H93.2374V15.8206H91.0373Z" fill="white"/>
<path d="M37.0005 28.1797V20.1797H42.8791C43.1672 20.1797 43.4302 20.2538 43.6679 20.4019C43.9129 20.5501 44.1074 20.7501 44.2515 21.0019C44.4027 21.2464 44.4784 21.5204 44.4784 21.8241V23.3241C44.4784 23.4204 44.4712 23.513 44.4568 23.6019C44.4496 23.6834 44.4316 23.7612 44.4027 23.8352C44.5108 23.976 44.6009 24.1389 44.6729 24.3241C44.7449 24.5093 44.781 24.6945 44.781 24.8797V26.5352C44.781 26.8315 44.7053 27.1056 44.554 27.3575C44.4099 27.6093 44.2154 27.8093 43.9705 27.9575C43.7328 28.1056 43.4662 28.1797 43.1708 28.1797H37.0005ZM38.6755 26.4464H43.0844V24.9797H38.6755V26.4464ZM38.6755 23.2464H42.7818V21.913H38.6755V23.2464Z" fill="white"/>
<path d="M45.9808 28.1797V20.1797H53.1668V21.913H47.6773V23.313H52.097V25.0464H47.6773V26.4464H53.1668V28.1797H45.9808Z" fill="white"/>
<path d="M56.8909 28.1797V21.913H53.8436V20.1797H61.624V21.913H58.5767V28.1797H56.8909Z" fill="white"/>
<path d="M62.4538 28.1797V21.8241C62.4538 21.5204 62.5258 21.2464 62.6699 21.0019C62.814 20.7501 63.0085 20.5501 63.2534 20.4019C63.4984 20.2538 63.7649 20.1797 64.0531 20.1797H68.6241C68.9194 20.1797 69.186 20.2538 69.4237 20.4019C69.6687 20.5501 69.8632 20.7501 70.0072 21.0019C70.1585 21.2464 70.2342 21.5204 70.2342 21.8241V28.1797H68.5376V25.6019H64.1287V28.1797H62.4538ZM64.1287 23.8686H68.5376V21.913H64.1287V23.8686Z" fill="white"/>
</svg>
